<?xml version="1.0" encoding="UTF-8"?>
<svg xmlns="http://www.w3.org/2000/svg" xmlns:xlink="http://www.w3.org/1999/xlink" width="250px" height="130px" viewBox="0 0 250 130" version="1.1"><title>Group 47</title><defs><polygon id="path-1" points="0.240207373 0.866359447 31.2732335 0.866359447 31.2732335 36.3657297 0.240207373 36.3657297"></polygon><polygon id="path-3" points="0 129.317972 249.211982 129.317972 249.211982 1.15207373 0 1.15207373"></polygon></defs><g id="Page-1" stroke="none" stroke-width="1" fill="none" fillRule="evenodd"><g id="Artboard" transform="translate(-735.000000, -547.000000)"><g id="Group-47" transform="translate(735.000000, 547.000000)"><path d="M68.6363829,32.8638249 C68.612212,32.4824885 87.9774194,30.3258065 104.528111,28.5516129 C116.874885,27.2278802 127.657143,26.1184332 127.657143,26.1184332 C127.657143,26.1184332 127.657143,50.0458525 108.264286,57.9467742 C108.264286,57.9467742 93.2988479,63.6380184 78.3334101,52.4675115 C78.3334101,52.4675115 69.456682,45.8960829 68.6363829,32.8638249" id="Fill-1" fill="#4454A0"></path><polygon id="Fill-3" fill="#E63256" points="104.527995 28.5519585 134.402419 20.2167051 124.607488 39.9459677"></polygon><path d="M117.117512,9.88813364 C130.608295,7.35817972 134.402074,20.2164747 134.402074,20.2164747 L104.52765,28.5517281 C104.796083,10.9607143 117.117512,9.88813364 117.117512,9.88813364" id="Fill-5" fill="#EFAF00"></path><polygon id="Fill-7" fill="#4454A0" points="132.644009 13.7297235 142.815668 9.11221198 135.675115 19.2781106"></polygon><g id="Group-11" transform="translate(56.451613, 0.285714)"><mask id="mask-2" fill="white"><use xlink:href="#path-1"></use></mask><g id="Clip-10"></g><path d="M0.802419355,5.17580645 C0.802419355,5.17580645 -0.462557604,3.27834101 0.802419355,1.80253456 C0.802419355,1.80253456 2.91071429,-0.304608295 5.22868664,1.80253456 L30.5236175,31.7345622 C30.5236175,31.7345622 32.2102535,34.0536866 30.5236175,35.3186636 C30.5236175,35.3186636 28.8369816,38.2691244 24.8323733,34.2645161 L0.802419355,5.17580645 Z" id="Fill-9" fill="#CF1C82" mask="url(#mask-2)"></path></g><path d="M53.2201613,9.24124424 C53.2201613,9.24124424 52.1879032,7.69170507 53.2201613,6.48663594 C53.2201613,6.48663594 54.9413594,4.76543779 56.8353687,6.48663594 L77.4908986,30.9290323 C77.4908986,30.9290323 78.8676267,32.8230415 77.4908986,33.8552995 C77.4908986,33.8552995 76.1141705,36.2654378 72.8434332,32.9947005 L53.2201613,9.24124424 Z" id="Fill-12" fill="#CF1C82"></path><path d="M51.6101382,14.424424 C51.6101382,14.424424 50.7875576,13.190553 51.6101382,12.2308756 C51.6101382,12.2308756 52.981106,10.8599078 54.4891705,12.2308756 L70.9419355,31.6986175 C70.9419355,31.6986175 72.0375576,33.206682 70.9419355,34.0304147 C70.9419355,34.0304147 69.8451613,35.9497696 67.2391705,33.3437788 L51.6101382,14.424424 Z" id="Fill-14" fill="#CF1C82"></path><path d="M104.527995,28.5300691 L127.776843,26.0842166 C127.776843,26.0842166 127.324078,34.7213134 124.712327,39.9828341 L104.527995,28.5300691 Z" id="Fill-16" fill="#CF1C82"></path><path d="M127.776959,26.0846774 L134.556912,20.1514977 L124.71129,39.9832949 C124.71129,39.9832949 127.803456,30.1180876 127.776959,26.0846774" id="Fill-18" fill="#4454A0"></path><path d="M121.151498,17.9323733 C121.877304,15.0291475 125.093894,16.1835253 126.951037,14.9323733 C125.108871,12.5360599 120.336982,14.4231567 121.108871,17.6397465" id="Fill-20" fill="#FEFEFE"></path><path d="M72.9820276,46.343318 C72.9820276,46.343318 76.4705069,51.7949309 80.9232719,54.2373272 L62.8967742,61.4573733 L72.9820276,46.343318 Z" id="Fill-22" fill="#CF1C82"></path><path d="M13.5281106,122.449309 C13.5281106,120.512673 12.2389401,119.225806 10.3057604,119.225806 L8.80460829,119.225806 L8.80460829,125.6947 L10.3057604,125.6947 C12.2389401,125.6947 13.5281106,124.375576 13.5281106,122.449309 M17.2158986,122.449309 C17.2158986,126.259217 14.4175115,128.988479 10.4762673,128.988479 L5.19170507,128.988479 L5.19170507,115.932028 L10.4762673,115.932028 C14.4290323,115.932028 17.2158986,118.633641 17.2158986,122.449309" id="Fill-24" fill="#C0227A"></path><mask id="mask-4" fill="white"><use xlink:href="#path-3"></use></mask><g id="Clip-27"></g><polygon id="Fill-26" fill="#C0227A" mask="url(#mask-4)" points="19.0829493 128.988479 22.7281106 128.988479 22.7281106 115.932028 19.0829493 115.932028"></polygon><path d="M38.4158986,122.010599 C38.4158986,126.282488 35.6267281,129.318203 31.5380184,129.318203 C27.5380184,129.318203 24.5829493,126.442627 24.5829493,122.470276 C24.5829493,118.499078 27.483871,115.601613 31.5057604,115.601613 C34.9285714,115.601613 37.7281106,117.743318 38.2799539,120.77788 L34.5103687,120.77788 C34.0380184,119.67765 32.8698157,118.970276 31.5380184,118.970276 C29.5829493,118.970276 28.264977,120.385023 28.264977,122.470276 C28.264977,124.535945 29.5610599,125.949539 31.5380184,125.949539 C32.9112903,125.949539 34.0887097,125.284793 34.4988479,124.279032 L31.2569124,124.279032 L31.2569124,122.010599 L38.4158986,122.010599 Z" id="Fill-28" fill="#C0227A" mask="url(#mask-4)"></path><polygon id="Fill-29" fill="#C0227A" mask="url(#mask-4)" points="40.2281106 128.988479 43.8732719 128.988479 43.8732719 115.932028 40.2281106 115.932028"></polygon><polygon id="Fill-30" fill="#C0227A" mask="url(#mask-4)" points="56.1908986 119.170853 52.6448157 119.170853 52.6448157 128.987673 49.0319124 128.987673 49.0319124 119.170853 45.4858295 119.170853 45.4858295 115.932373 56.1908986 115.932373"></polygon><path d="M62.0874424,120.007373 L60.6565668,124.053456 L63.5309908,124.053456 L62.0874424,120.007373 Z M64.408871,126.867972 L59.7809908,126.867972 L59.0574885,128.987788 L55.2026498,128.987788 L60.331682,115.932488 L63.8478111,115.932488 L69.0885945,128.987788 L65.127765,128.987788 L64.408871,126.867972 Z" id="Fill-31" fill="#C0227A" mask="url(#mask-4)"></path><polygon id="Fill-32" fill="#C0227A" mask="url(#mask-4)" points="78.6332949 125.694585 78.6332949 128.988364 70.3418203 128.988364 70.3418203 115.931912 73.9869816 115.931912 73.9869816 125.694585"></polygon><polygon id="Fill-33" fill="#C0227A" mask="url(#mask-4)" points="92.0773041 125.694585 92.0773041 128.988364 83.7858295 128.988364 83.7858295 115.931912 87.4309908 115.931912 87.4309908 125.694585"></polygon><polygon id="Fill-34" fill="#C0227A" mask="url(#mask-4)" points="102.199078 125.868433 102.199078 128.988249 93.6875576 128.988249 93.6875576 115.931797 102.041244 115.931797 102.041244 119.041244 97.2682028 119.041244 97.2682028 120.964055 101.556221 120.964055 101.556221 123.913364 97.2682028 123.913364 97.2682028 125.868433"></polygon><path d="M109.87765,120.007373 L108.447926,124.053456 L111.321198,124.053456 L109.87765,120.007373 Z M112.20023,126.867972 L107.571198,126.867972 L106.848848,128.987788 L102.994009,128.987788 L108.123041,115.932488 L111.638018,115.932488 L116.879954,128.987788 L112.919124,128.987788 L112.20023,126.867972 Z" id="Fill-35" fill="#C0227A" mask="url(#mask-4)"></path><path d="M121.7303,121.963249 L123.373157,121.963249 C124.378917,121.963249 124.957258,121.35841 124.957258,120.54159 C124.957258,119.725922 124.378917,119.129147 123.373157,119.129147 L121.7303,119.129147 L121.7303,121.963249 Z M123.034447,124.993203 L121.7303,124.993203 L121.7303,128.988594 L118.133525,128.988594 L118.133525,115.932143 L123.791359,115.932143 C126.605876,115.932143 128.64735,117.823848 128.64735,120.551959 C128.64735,122.155645 127.86394,123.467857 126.57477,124.239747 L129.166935,128.988594 L125.153111,128.988594 L123.034447,124.993203 Z" id="Fill-36" fill="#C0227A" mask="url(#mask-4)"></path><polygon id="Fill-37" fill="#C0227A" mask="url(#mask-4)" points="142.384332 115.932373 142.384332 128.988825 139.409677 128.988825 134.223041 121.903571 134.223041 128.988825 130.738018 128.988825 130.738018 115.932373 133.885484 115.932373 138.899309 122.781452 138.899309 115.932373"></polygon><polygon id="Fill-38" fill="#C0227A" mask="url(#mask-4)" points="144.908986 128.988479 148.552995 128.988479 148.552995 115.932028 144.908986 115.932028"></polygon><polygon id="Fill-39" fill="#C0227A" mask="url(#mask-4)" points="162.72788 115.932373 162.72788 128.988825 159.753226 128.988825 154.56659 121.903571 154.56659 128.988825 151.081567 128.988825 151.081567 115.932373 154.229032 115.932373 159.242857 122.781452 159.242857 115.932373"></polygon><path d="M178.41371,122.010599 C178.41371,126.282488 175.624539,129.318203 171.535829,129.318203 C167.535829,129.318203 164.579608,126.442627 164.579608,122.470276 C164.579608,118.499078 167.481682,115.601613 171.503571,115.601613 C174.926382,115.601613 177.72477,117.743318 178.277765,120.77788 L174.50818,120.77788 C174.035829,119.67765 172.867627,118.970276 171.535829,118.970276 C169.579608,118.970276 168.261636,120.385023 168.261636,122.470276 C168.261636,124.535945 169.557719,125.949539 171.535829,125.949539 C172.909101,125.949539 174.085369,125.284793 174.496659,124.279032 L171.253571,124.279032 L171.253571,122.010599 L178.41371,122.010599 Z" id="Fill-40" fill="#C0227A" mask="url(#mask-4)"></path><path d="M1.57315668,102.193548 C0.524769585,101.531106 -0.000576036866,100.483871 -0.000576036866,99.047235 C-0.000576036866,97.6117512 1.04781106,95.4320276 3.1468894,92.5057604 C3.75288018,91.5679724 4.73214286,91.0990783 6.08582949,91.0990783 C7.43721198,91.0990783 9.27361751,91.7753456 11.5915899,93.1267281 C13.9095622,94.4804147 16.0074885,95.156682 17.8842166,95.156682 C21.250576,95.156682 22.9349078,94.4930876 22.9349078,93.1693548 C22.9349078,92.1209677 21.0846774,91.3467742 17.3876728,90.8502304 C13.9095622,90.3536866 10.4591014,89.0576037 7.0374424,86.9596774 C5.43605991,85.9654378 4.11117512,84.406682 3.06278802,82.281106 C2.01440092,80.156682 1.49020737,77.6313364 1.49020737,74.7050691 C1.49020737,65.983871 7.47868664,61.6232719 19.4567972,61.6232719 C23.3761521,61.6232719 27.4049539,62.562212 31.5455069,64.4389401 C33.4763825,65.3225806 34.4429724,66.4251152 34.4429724,67.7511521 C34.4429724,69.0748848 33.8346774,70.7039171 32.6215438,72.6359447 C31.4072581,74.5679724 30.1641705,75.5322581 28.8957373,75.5322581 C28.2332949,75.5322581 27.0040323,75.1198157 25.2114055,74.2914747 C23.4164747,73.4631336 21.4706221,73.0495392 19.375,73.0495392 C16.1169355,73.0495392 14.4890553,73.656682 14.4890553,74.8709677 C14.4890553,76.5264977 16.3657834,77.6036866 20.1192396,78.0990783 C23.7620968,78.4861751 27.2943548,79.5357143 30.7171659,81.2465438 C32.3173963,82.0195853 33.6572581,83.3571429 34.7332949,85.2615207 C35.8093318,87.1658986 36.3473502,89.5541475 36.3473502,92.4239631 C36.3473502,95.2937788 35.8093318,97.7361751 34.7332949,99.7511521 C33.6572581,101.766129 32.1514977,103.269585 30.2206221,104.263825 C26.687212,105.974654 22.2586406,106.829493 16.9326037,106.829493 C11.6042627,106.829493 6.48559908,105.285714 1.57315668,102.193548" id="Fill-41" fill="#383D8A" mask="url(#mask-4)"></path><path d="M65.9052995,62.6169355 C71.4248848,62.6169355 76.0205069,64.7148618 79.6910138,68.9095622 C83.3615207,73.1054147 85.1979263,78.2379032 85.1979263,84.3093318 L85.1979263,98.8819124 C85.1979263,100.15265 85.1564516,101.104263 85.0735023,101.739055 C84.990553,102.372696 84.7267281,103.104263 84.2866359,103.931452 C83.568894,105.368088 81.443318,106.084677 77.9110599,106.084677 C74.5435484,106.084677 72.4467742,105.368088 71.6184332,103.931452 C71.1771889,103.104263 70.9145161,102.358871 70.8315668,101.696429 C70.7486175,101.035138 70.7082949,100.040899 70.7082949,98.7160138 L70.7082949,84.2263825 C70.7082949,81.9637097 70.0735023,80.1987327 68.802765,78.9279954 C67.5331797,77.6595622 65.9179724,77.0236175 63.959447,77.0236175 C61.9997696,77.0236175 60.2751152,77.6180876 58.7843318,78.8035714 C57.2947005,79.9913594 56.4375576,81.3289171 56.2186636,82.8197005 L56.2186636,98.8819124 C56.2186636,100.15265 56.1771889,101.104263 56.0942396,101.739055 C56.0112903,102.372696 55.7486175,103.104263 55.3073733,103.931452 C54.5896313,105.368088 52.4640553,106.084677 48.9317972,106.084677 C45.4548387,106.084677 43.3292627,105.339286 42.5562212,103.849654 C42.1702765,103.021313 41.9364055,102.304724 41.8534562,101.696429 C41.7705069,101.090438 41.7290323,100.123848 41.7290323,98.7989631 L41.7290323,49.2862903 C41.7290323,48.0178571 41.7705069,47.0650922 41.8534562,46.4314516 C41.9364055,45.796659 42.1702765,45.0927419 42.5562212,44.3197005 C43.3292627,42.8289171 45.4824885,42.0835253 49.0147465,42.0835253 C52.4928571,42.0835253 54.5896313,42.8289171 55.3073733,44.3197005 C55.7486175,45.1468894 56.0112903,45.8796083 56.0942396,46.5132488 C56.1771889,47.1491935 56.2186636,48.1008065 56.2186636,49.3692396 L56.2186636,67.6676267 C58.9778802,64.3012673 62.2071429,62.6169355 65.9052995,62.6169355" id="Fill-42" fill="#383D8A" mask="url(#mask-4)"></path><path d="M91.8208525,69.7374424 C91.8208525,68.4678571 91.8623272,67.5162442 91.9452765,66.8814516 C92.0282258,66.2478111 92.2620968,65.5150922 92.6491935,64.6867512 C93.4210829,63.2524194 95.5731567,62.5346774 99.1065668,62.5346774 C101.756336,62.5346774 103.63076,63.0035714 104.736751,63.9413594 C105.674539,64.715553 106.172235,65.9021889 106.22523,67.5024194 C106.281682,68.0554147 106.310484,68.8549539 106.310484,69.903341 L106.310484,98.8814516 C106.310484,100.152189 106.270161,101.104954 106.184908,101.738594 C106.103111,102.373387 105.840438,103.103802 105.398041,103.932143 C104.6803,105.368779 102.554724,106.084217 99.0247696,106.084217 C95.546659,106.084217 93.4210829,105.339977 92.6491935,103.849194 C92.2620968,103.022005 92.0282258,102.305415 91.9452765,101.69712 C91.8623272,101.089977 91.8208525,100.123387 91.8208525,98.7985023 L91.8208525,69.7374424 Z" id="Fill-43" fill="#383D8A" mask="url(#mask-4)"></path><path d="M179.001498,62.6169355 C184.519931,62.6169355 189.115553,64.7148618 192.78606,68.9095622 C196.457719,73.1054147 198.292972,78.2379032 198.292972,84.3093318 L198.292972,98.8819124 C198.292972,100.15265 198.251498,101.104263 198.168548,101.739055 C198.085599,102.372696 197.824078,103.104263 197.382834,103.931452 C196.665092,105.368088 194.538364,106.084677 191.007258,106.084677 C187.639747,106.084677 185.54182,105.368088 184.714631,103.931452 C184.272235,103.104263 184.010714,102.358871 183.927765,101.696429 C183.845968,101.035138 183.803341,100.040899 183.803341,98.7160138 L183.803341,84.2263825 C183.803341,81.9637097 183.168548,80.1987327 181.898963,78.9279954 C180.629378,77.6595622 179.014171,77.0236175 177.056797,77.0236175 C175.09712,77.0236175 173.371313,77.6180876 171.881682,78.8035714 C170.390899,79.9913594 169.533756,81.3289171 169.314862,82.8197005 L169.314862,98.8819124 C169.314862,100.15265 169.273387,101.104263 169.190438,101.739055 C169.107488,102.372696 168.844816,103.104263 168.403571,103.931452 C167.685829,105.368088 165.560253,106.084677 162.029147,106.084677 C158.551037,106.084677 156.425461,105.339286 155.652419,103.849654 C155.265323,103.021313 155.032604,102.304724 154.949654,101.696429 C154.866705,101.090438 154.82523,100.123848 154.82523,98.7989631 L154.82523,49.2862903 C154.82523,48.0178571 154.866705,47.0650922 154.949654,46.4314516 C155.032604,45.796659 155.265323,45.0927419 155.652419,44.3197005 C156.425461,42.8289171 158.577535,42.0835253 162.110945,42.0835253 C165.589055,42.0835253 167.685829,42.8289171 168.403571,44.3197005 C168.844816,45.1468894 169.107488,45.8796083 169.190438,46.5132488 C169.273387,47.1491935 169.314862,48.1008065 169.314862,49.3692396 L169.314862,67.6676267 C172.072926,64.3012673 175.303341,62.6169355 179.001498,62.6169355" id="Fill-44" fill="#383D8A" mask="url(#mask-4)"></path><path d="M220.979608,90.2294931 C222.744585,91.5831797 224.539516,92.2582949 226.359793,92.2582949 C228.181221,92.2582949 230.003802,91.5682028 231.826382,90.1880184 C233.647811,88.8089862 234.557949,86.7663594 234.557949,84.0612903 C234.557949,81.3573733 233.700806,79.3412442 231.991129,78.0175115 C230.279147,76.6926267 228.431221,76.0301843 226.443894,76.0301843 C224.456567,76.0301843 222.606336,76.7202765 220.896659,78.0993088 C219.184677,79.4806452 218.328687,81.5082949 218.328687,84.1845622 C218.328687,86.8631336 219.211175,88.8781106 220.979608,90.2294931 M210.63053,67.916129 C215.266475,63.6108295 220.566014,61.4576037 226.526843,61.4576037 C232.487673,61.4576037 237.75841,63.5981567 242.340207,67.8746544 C246.922005,72.1534562 249.211175,77.6039171 249.211175,84.2271889 C249.211175,88.8089862 248.025691,92.8781106 245.652419,96.4391705 C243.277995,99.9990783 240.395507,102.621198 237.000346,104.304378 C233.605184,105.98871 230.086751,106.829724 226.443894,106.829724 C222.801037,106.829724 219.267627,105.93341 215.845968,104.138479 C212.423157,102.347005 209.539516,99.6960829 207.193894,96.1903226 C204.84712,92.6868664 203.675461,88.7260369 203.675461,84.3089862 C203.675461,77.6857143 205.993433,72.2214286 210.63053,67.916129" id="Fill-45" fill="#383D8A" mask="url(#mask-4)"></path><path d="M125.45265,92.7958525 L125.45265,93.116129 C125.451498,95.6046083 125.456106,98.0930876 125.445737,100.580415 C125.439977,101.734793 125.266014,102.846544 124.770622,103.91682 C124.291359,104.955991 123.512558,105.582719 122.466475,105.93871 C121.564401,106.244009 120.633525,106.402995 119.685369,106.443318 C118.838594,106.47788 117.988364,106.508986 117.142742,106.484793 C116.072465,106.452535 115.012558,106.314286 113.981452,105.996313 C112.605876,105.571198 111.666935,104.731336 111.234908,103.321198 C110.974539,102.468664 110.846659,101.609217 110.829378,100.726728 C110.819009,100.211751 110.795968,99.6967742 110.795968,99.1806452 C110.793664,87.4387097 110.79712,75.6967742 110.784443,63.9548387 C110.783295,63.4629032 111.006797,63.1403226 111.345507,62.8903226 C113.037903,61.6357143 114.677304,60.3165899 116.20265,58.8615207 C118.612788,56.5619816 120.795968,54.0723502 122.467627,51.1702765 C123.483756,49.4052995 124.251037,47.537788 124.686521,45.5423963 C124.696889,45.4940092 124.696889,45.428341 124.727995,45.4018433 C124.832834,45.3108295 124.939977,45.1887097 125.064401,45.1633641 C125.213018,45.1334101 125.252189,45.2808756 125.261406,45.4168203 C125.323618,46.318894 125.443433,47.2209677 125.444585,48.1230415 C125.45841,57.1184332 125.45265,66.1138249 125.45265,75.1103687 L125.45265,75.5193548 C125.570161,75.4375576 125.653111,75.3937788 125.718779,75.3315668 C126.996429,74.1403226 128.274078,72.9502304 129.54712,71.7532258 C131.188825,70.209447 132.756797,68.5781106 134.484908,67.1380184 C135.835138,66.0124424 137.282143,64.9652074 138.971083,64.3384793 C140.428456,63.7981567 141.772926,63.94447 143.009101,64.9052995 C143.33629,65.1610599 143.671544,65.412212 143.966475,65.7025346 C145.436521,67.1552995 146.698041,68.7693548 147.648502,70.6115207 C147.929608,71.1587558 148.14159,71.7347926 148.217627,72.3511521 C148.332834,73.2831797 147.98606,74.0781106 147.474539,74.8223502 C146.755645,75.8695853 145.812097,76.6979263 144.852419,77.5112903 C142.218779,79.7428571 139.587442,81.9778802 136.954954,84.2105991 C136.916935,84.2428571 136.874309,84.2693548 136.800576,84.3223502 C137.14159,84.6080645 137.449194,84.8684332 137.759101,85.1253456 C141.240668,88.0043779 144.727995,90.8741935 148.195737,93.7693548 C148.920392,94.3753456 149.598963,95.0458525 150.238364,95.7428571 C150.927304,96.4917051 151.278687,97.3995392 151.161175,98.4410138 C151.081682,99.1506912 150.837442,99.8131336 150.516014,100.44447 C149.475691,102.489401 148.136982,104.307373 146.36394,105.780876 C145.693433,106.336175 144.965323,106.795853 144.08629,106.955991 C143.35818,107.088479 142.665783,106.939862 141.99182,106.678341 C140.860484,106.238249 139.860484,105.567742 138.860484,104.892627 C136.848963,103.532028 135.151959,101.813134 133.414631,100.142627 C131.118548,97.9341014 128.89735,95.6483871 126.487212,93.5596774 C126.170392,93.2843318 125.845507,93.0193548 125.524078,92.7509217 C125.501037,92.7658986 125.476843,92.7808756 125.45265,92.7958525" id="Fill-46" fill="#383D8A" mask="url(#mask-4)"></path></g></g></g></svg>
